<svg width="57" height="57" viewBox="0 0 57 57" fill="none" xmlns="http://www.w3.org/2000/svg">
<path d="M7.37368 30.5367H40.7227L44.7988 10.1523H4.03175C3.76393 10.1532 3.49891 10.2068 3.25184 10.3102C3.00476 10.4135 2.78047 10.5645 2.59178 10.7546C2.4031 10.9447 2.25371 11.17 2.15218 11.4179C2.05064 11.6657 1.99893 11.9311 2.00002 12.1989C1.9999 12.3194 2.01111 12.4396 2.03351 12.558L5.37599 28.8668C5.45444 29.338 5.69906 29.7654 6.06553 30.0718C6.432 30.3781 6.89608 30.543 7.37368 30.5367Z" fill="#42BC5F" fill-opacity="0.2" stroke="#42BC5F" stroke-width="2.5" stroke-linecap="round" stroke-linejoin="round"/>
<path d="M15.416 18.543L16.3891 22.4352" stroke="#42BC5F" stroke-width="2.5" stroke-linecap="round" stroke-linejoin="round"/>
<path d="M29.0375 18.543L28.0645 22.4352" stroke="#42BC5F" stroke-width="2.5" stroke-linecap="round" stroke-linejoin="round"/>
<path d="M44.7988 10.1533L46.511 3.63033C46.605 3.16997 46.8552 2.75623 47.2193 2.45914C47.5833 2.16206 48.0388 1.99986 48.5087 2H54.9882" stroke="#42BC5F" stroke-width="2.5" stroke-linecap="round" stroke-linejoin="round"/>
<path d="M40.7193 30.5391L39.0071 39.1003C38.9133 39.5608 38.6631 39.9747 38.299 40.2718C37.9349 40.5689 37.4793 40.731 37.0094 40.7307H12.1816" stroke="#42BC5F" stroke-width="2.5" stroke-linecap="round" stroke-linejoin="round"/>
<path d="M14.22 50.9219C14.6233 50.9218 15.0175 51.0413 15.3529 51.2653C15.6883 51.4893 15.9497 51.8077 16.1041 52.1803C16.2585 52.5528 16.2989 52.9628 16.2202 53.3584C16.1416 53.7539 15.9474 54.1173 15.6622 54.4024C15.377 54.6876 15.0137 54.8818 14.6181 54.9605C14.2226 55.0391 13.8126 54.9987 13.44 54.8443C13.0674 54.6899 12.749 54.4285 12.525 54.0931C12.301 53.7578 12.1815 53.3635 12.1816 52.9602C12.1816 52.6925 12.2344 52.4275 12.3368 52.1802C12.4392 51.9329 12.5894 51.7082 12.7787 51.5189C12.9679 51.3296 13.1926 51.1795 13.4399 51.077C13.6872 50.9746 13.9523 50.9219 14.22 50.9219Z" fill="#42BC5F" stroke="#42BC5F" stroke-width="2.5" stroke-linecap="round" stroke-linejoin="round"/>
<path d="M34.6047 50.9219C35.008 50.9218 35.4023 51.0413 35.7377 51.2653C36.073 51.4893 36.3345 51.8077 36.4888 52.1803C36.6432 52.5528 36.6837 52.9628 36.605 53.3584C36.5263 53.7539 36.3322 54.1173 36.047 54.4024C35.7618 54.6876 35.3985 54.8818 35.0029 54.9605C34.6074 55.0391 34.1974 54.9987 33.8248 54.8443C33.4522 54.6899 33.1338 54.4285 32.9098 54.0931C32.6858 53.7578 32.5663 53.3635 32.5664 52.9602C32.5664 52.6925 32.6191 52.4275 32.7216 52.1802C32.824 51.9329 32.9741 51.7082 33.1634 51.5189C33.3527 51.3296 33.5774 51.1795 33.8247 51.077C34.072 50.9746 34.3371 50.9219 34.6047 50.9219V50.9219Z" fill="#42BC5F" stroke="#42BC5F" stroke-width="2.5" stroke-linecap="round" stroke-linejoin="round"/>
</svg>
