<svg width="60" height="54" viewBox="0 0 60 54" fill="none" xmlns="http://www.w3.org/2000/svg">
<path d="M18.0449 51.9754L21.5638 43.4297H29.1041L32.6229 51.9754H18.0449Z" fill="#B2D9FD"/>
<path d="M47.9157 10.6172H2.86161C2.38576 10.6172 2 11.0029 2 11.4788V42.1399C2 42.6157 2.38576 43.0015 2.86161 43.0015H47.9157C48.3916 43.0015 48.7773 42.6157 48.7773 42.1399V11.4788C48.7773 11.0029 48.3916 10.6172 47.9157 10.6172Z" stroke="#0080FF" stroke-width="2.5" stroke-linecap="round" stroke-linejoin="round"/>
<path d="M21.7902 43.0039L18.1914 51.999" stroke="#0080FF" stroke-width="2.5" stroke-linecap="round" stroke-linejoin="round"/>
<path d="M28.9863 43.0039L32.5851 51.999" stroke="#0080FF" stroke-width="2.5" stroke-linecap="round" stroke-linejoin="round"/>
<path d="M14.5938 52H36.1833" stroke="#0080FF" stroke-width="2.5" stroke-linecap="round" stroke-linejoin="round"/>
<g opacity="0.3">
<g opacity="0.3">
<path opacity="0.3" d="M40.5327 29.3867C36.9078 33.0357 30.7474 34.2437 27.1934 30.5932C31.9317 25.6889 27.1934 23.3202 30.7469 19.7652C31.9644 18.4091 33.6708 17.5923 35.4907 17.4943C37.3105 17.3964 39.0947 18.0254 40.4508 19.2429C41.8069 20.4605 42.6238 22.1669 42.7217 23.9867C42.8197 25.8066 42.1907 27.5908 40.9731 28.9468C40.8045 29.1346 40.6258 29.3129 40.4377 29.4812L40.5327 29.3867Z" fill="#0080FF"/>
</g>
</g>
<path d="M56.6179 3.3761C56.1569 2.92199 55.6087 2.5661 55.0062 2.32996C54.4038 2.09382 53.7597 1.98234 53.113 2.00227C52.4662 2.02219 51.8303 2.17311 51.2435 2.44588C50.6568 2.71865 50.1314 3.10762 49.6993 3.58924L36.9531 17.8048C38.3197 18.0757 39.569 18.7626 40.5298 19.7713C41.3945 20.632 42.0231 21.7009 42.355 22.875L56.4047 10.2946C56.8866 9.86268 57.2758 9.33741 57.5487 8.75065C57.8217 8.16389 57.9727 7.52783 57.9926 6.881C58.0125 6.23417 57.901 5.59002 57.6647 4.98757C57.4284 4.38512 57.0722 3.8369 56.6179 3.3761Z" fill="#B2D9FD"/>
<path d="M56.6179 3.3761C56.1569 2.92199 55.6087 2.5661 55.0062 2.32996C54.4038 2.09382 53.7597 1.98234 53.113 2.00227C52.4662 2.02219 51.8303 2.17311 51.2435 2.44588C50.6568 2.71865 50.1314 3.10762 49.6993 3.58924L36.9531 17.8048C38.3197 18.0757 39.569 18.7626 40.5298 19.7713C41.3945 20.632 42.0231 21.7009 42.355 22.875L56.4047 10.2946C56.8866 9.86268 57.2758 9.33741 57.5487 8.75065C57.8217 8.16389 57.9727 7.52783 57.9926 6.881C58.0125 6.23417 57.901 5.59002 57.6647 4.98757C57.4284 4.38512 57.0722 3.8369 56.6179 3.3761V3.3761Z" stroke="#0080FF" stroke-width="2.5" stroke-linecap="round" stroke-linejoin="round"/>
<path d="M40.5308 29.3906C36.9059 33.0396 30.7454 34.2476 27.1914 30.5971C31.9298 25.6928 27.1914 23.3241 30.7449 19.7691C31.9625 18.413 33.6689 17.5962 35.4887 17.4982C37.3086 17.4003 39.0928 18.0293 40.4489 19.2468C41.8049 20.4644 42.6218 22.1708 42.7198 23.9906C42.8177 25.8105 42.1887 27.5947 40.9712 28.9508C40.8025 29.1385 40.6238 29.3168 40.4358 29.4851L40.5308 29.3906Z" fill="#B2D9FD" stroke="#0080FF" stroke-width="2.5" stroke-linecap="round" stroke-linejoin="round"/>
</svg>
