<svg width="49" height="49" viewBox="0 0 49 49" fill="none" xmlns="http://www.w3.org/2000/svg">
<rect x="2.46875" y="2.46875" width="43.913" height="10.9783" fill="#FF00C7" fill-opacity="0.2"/>
<path d="M3.80039 2H45.0891C45.3257 1.99973 45.56 2.04609 45.7787 2.13644C45.9974 2.2268 46.1961 2.35937 46.3635 2.52658C46.5309 2.69379 46.6637 2.89235 46.7543 3.11092C46.8449 3.32949 46.8915 3.56378 46.8915 3.80039V45.089C46.8915 45.5664 46.7019 46.0242 46.3644 46.3617C46.0268 46.6993 45.569 46.8889 45.0917 46.8889H3.80039C3.32289 46.8889 2.86496 46.6992 2.52732 46.3616C2.18968 46.0239 2 45.566 2 45.0885V3.80039C2 3.3229 2.18968 2.86496 2.52732 2.52732C2.86496 2.18968 3.32289 2 3.80039 2V2Z" stroke="#FF00C7" stroke-width="2.5" stroke-linecap="round" stroke-linejoin="round"/>
<path d="M2 14.0859H46.8889" stroke="#FF00C7" stroke-width="2.5" stroke-linecap="round" stroke-linejoin="round"/>
<path d="M14.7636 24.4414L9.58398 29.621L14.7636 34.8006" stroke="#FF00C7" stroke-width="2.5" stroke-linecap="round" stroke-linejoin="round"/>
<path d="M33.7539 24.4414L38.9335 29.621L33.7539 34.8006" stroke="#FF00C7" stroke-width="2.5" stroke-linecap="round" stroke-linejoin="round"/>
<path d="M21.668 36.527L26.8476 20.9883" stroke="#FF00C7" stroke-width="2.5" stroke-linecap="round" stroke-linejoin="round"/>
</svg>
