<svg width="48" height="48" viewBox="0 0 48 48" fill="none" xmlns="http://www.w3.org/2000/svg">
<path d="M19.1682 27.6289L24.8385 41.3135C24.9859 41.6995 25.0558 42.1108 25.0441 42.5239C25.0324 42.937 24.9393 43.3437 24.7703 43.7207C24.6012 44.0978 24.3594 44.4378 24.0588 44.7213C23.7582 45.0048 23.4046 45.2263 23.0183 45.373L20.6218 46.2897C20.2358 46.4371 19.8245 46.507 19.4114 46.4953C18.9983 46.4836 18.5916 46.3905 18.2146 46.2214C17.8375 46.0524 17.4975 45.8106 17.214 45.51C16.9304 45.2093 16.709 44.8557 16.5623 44.4694L9.72656 27.6289" fill="#F09637" fill-opacity="0.2"/>
<path d="M19.1682 27.6289L24.8385 41.3135C24.9859 41.6995 25.0558 42.1108 25.0441 42.5239C25.0324 42.937 24.9393 43.3437 24.7703 43.7207C24.6012 44.0978 24.3594 44.4378 24.0588 44.7213C23.7582 45.0048 23.4046 45.2263 23.0183 45.373L20.6218 46.2897C20.2358 46.4371 19.8245 46.507 19.4114 46.4953C18.9983 46.4836 18.5916 46.3905 18.2146 46.2214C17.8375 46.0524 17.4975 45.8106 17.214 45.51C16.9304 45.2093 16.709 44.8557 16.5623 44.4694L9.72656 27.6289" stroke="#F09637" stroke-width="2.50185" stroke-miterlimit="10" stroke-linejoin="round"/>
<path d="M2 19.7703C2 17.6864 2.82781 15.6879 4.30131 14.2144C5.77481 12.7409 7.77331 11.9131 9.85716 11.9131H24.4191L40.762 2V37.5406L24.4322 27.6274H9.85716C7.77331 27.6274 5.77481 26.7996 4.30131 25.3261C2.82781 23.8526 2 21.8541 2 19.7703V19.7703Z" fill="#F09637" fill-opacity="0.2" stroke="#F09637" stroke-width="2.50185" stroke-miterlimit="10" stroke-linejoin="round"/>
<path d="M40.7617 13.7891C43.6558 13.7891 45.9998 16.2379 45.9998 19.2498C45.9998 22.2617 43.6558 24.7105 40.7617 24.7105" fill="#F09637" fill-opacity="0.2"/>
<path d="M40.7617 13.7891C43.6558 13.7891 45.9998 16.2379 45.9998 19.2498C45.9998 22.2617 43.6558 24.7105 40.7617 24.7105" stroke="#F09637" stroke-width="2.50185" stroke-miterlimit="10" stroke-linejoin="round"/>
</svg>
