<svg width="54" height="49" viewBox="0 0 54 49" fill="none" xmlns="http://www.w3.org/2000/svg">
<path d="M48.4286 9.14453H5.57143C3.59226 9.14453 2 10.7368 2 12.716V43.6683C2 45.6475 3.59226 47.2398 5.57143 47.2398H48.4286C50.4077 47.2398 52 45.6475 52 43.6683V12.716C52 10.7368 50.4077 9.14453 48.4286 9.14453Z" fill="#AE4BDD" fill-opacity="0.2" stroke="#AE4BDD" stroke-width="2.50185" stroke-miterlimit="10" stroke-linejoin="round"/>
<path d="M35.3327 9.14286V5.57143C35.3327 3.59226 33.7404 2 31.7613 2H22.2374C20.2583 2 18.666 3.59226 18.666 5.57143V9.14286" stroke="#AE4BDD" stroke-width="2.50185" stroke-miterlimit="10" stroke-linejoin="round"/>
<path d="M2 27H52" stroke="#AE4BDD" stroke-width="2.50185" stroke-miterlimit="10" stroke-linejoin="round"/>
<path d="M32.9516 27V32.9524H21.0469V27" fill="#AE4BDD" fill-opacity="0.2"/>
<path d="M32.9516 27V32.9524H21.0469V27" stroke="#AE4BDD" stroke-width="2.50185" stroke-miterlimit="10" stroke-linejoin="round"/>
</svg>
