<svg xmlns="http://www.w3.org/2000/svg" xmlns:xlink="http://www.w3.org/1999/xlink" width="252.256" height="72.309" viewBox="0 0 252.256 72.309">
  <defs>
    <linearGradient id="linear-gradient" x1="0.5" y1="-0.001" x2="0.5" y2="0.999" gradientUnits="objectBoundingBox">
      <stop offset="0" stop-color="#f7561e"/>
      <stop offset="1" stop-color="#ffcc15"/>
    </linearGradient>
    <linearGradient id="linear-gradient-2" x1="0.5" x2="0.5" y2="0.999" gradientUnits="objectBoundingBox">
      <stop offset="0" stop-color="#999"/>
      <stop offset="0.48" stop-color="#909090"/>
      <stop offset="0.99" stop-color="gray"/>
    </linearGradient>
    <linearGradient id="linear-gradient-3" x1="0.5" x2="0.5" y2="1" gradientUnits="objectBoundingBox">
      <stop offset="0" stop-color="#27e0fc"/>
      <stop offset="0.6" stop-color="#496fde"/>
      <stop offset="0.84" stop-color="#4959e3"/>
      <stop offset="1" stop-color="#4951e5"/>
    </linearGradient>
  </defs>
  <g id="Grupo_60" data-name="Grupo 60" transform="translate(-71 -91.395)">
    <g id="Grupo_59" data-name="Grupo 59">
      <path id="Trazado_11" data-name="Trazado 11" d="M87.354,223c.62,0,1.268.025,1.918.074q.908.069,1.784.208a20.059,20.059,0,0,1-.869,8.46,17.339,17.339,0,0,1-2.9,5.4,17.322,17.322,0,0,1-2.879-5.392,19.851,19.851,0,0,1-.993-6.2,20.463,20.463,0,0,1,.122-2.233c.668-.107,1.34-.186,2.01-.236.588-.042,1.189-.064,1.792-.064m0-1.241c-.633,0-1.263.022-1.883.069a24.788,24.788,0,0,0-3.03.409c-.025.166-.05.332-.069.5a21.657,21.657,0,0,0-.171,2.8,21.115,21.115,0,0,0,1.045,6.6,18.115,18.115,0,0,0,4.045,6.869l.027.027a18.13,18.13,0,0,0,4.072-6.9,21.093,21.093,0,0,0,1.042-6.6,21.5,21.5,0,0,0-.179-2.8c-.022-.176-.047-.35-.072-.521a24.157,24.157,0,0,0-2.8-.382q-.993-.077-2.015-.079Z" transform="translate(9.206 -75.342)" fill="url(#linear-gradient)"/>
      <path id="Trazado_12" data-name="Trazado 12" d="M162.489,116.558c4.916,3.206,7.941,7.8,8.388,12.767h-.2a44.973,44.973,0,0,1-8.216-.744c.186-2.022.28-4.077.28-6.124,0-1.973-.087-3.948-.248-5.9M161,114.252a67.664,67.664,0,0,1,.109,15.321,45.847,45.847,0,0,0,9.564.993q.744,0,1.489-.022c-.012-6.8-4.447-12.787-11.167-16.294Z" transform="translate(-50.047 5.496)" fill="#4951e5"/>
      <path id="Trazado_13" data-name="Trazado 13" d="M9.678,116.538c-.171,1.95-.248,3.928-.248,5.9,0,2.032.092,4.072.275,6.08a45.16,45.16,0,0,1-8.41.792c.442-4.963,3.469-9.561,8.383-12.772m1.489-2.308C4.434,117.741,0,123.732,0,130.534c.412,0,.826.017,1.241.017a46.033,46.033,0,0,0,9.8-1.042A66.1,66.1,0,0,1,11.167,114.23Z" transform="translate(71 5.511)" fill="#4951e5"/>
      <path id="Trazado_14" data-name="Trazado 14" d="M78.663,186.971a24.024,24.024,0,0,1,6.531.9q-.179.643-.377,1.258c-.3.955-.643,1.9-1.017,2.812a26,26,0,0,0-3.025-.414c-.7-.057-1.414-.084-2.112-.084s-1.34.025-1.985.072a26.087,26.087,0,0,0-3.166.427c-.37-.906-.712-1.849-1.017-2.814-.129-.407-.248-.826-.375-1.256a24.025,24.025,0,0,1,6.544-.9m0-1.241a25.2,25.2,0,0,0-8.033,1.308q.31,1.256.695,2.467a36.444,36.444,0,0,0,1.462,3.866,24.881,24.881,0,0,1,3.993-.625c.62-.047,1.241-.069,1.883-.069q1.015,0,2.015.079a25,25,0,0,1,3.861.608A37.206,37.206,0,0,0,86,189.5q.387-1.209.695-2.467A25.206,25.206,0,0,0,78.663,185.73Z" transform="translate(17.897 -48.246)" fill="url(#linear-gradient-2)"/>
      <path id="Trazado_15" data-name="Trazado 15" d="M64.28,1.864c7.348,8.512,11.539,20.527,11.539,33.205a56.861,56.861,0,0,1-.844,9.79h0l-.149-.065a26.629,26.629,0,0,0-21.207.052l-.032.015a56.881,56.881,0,0,1-.844-9.79c0-12.678,4.189-24.7,11.537-33.208m0,31.637a5.707,5.707,0,1,0-5.707-5.707A5.707,5.707,0,0,0,64.28,33.5m0-33.5c-.02.022-.042.045-.062.069-7.787,8.457-12.718,21-12.718,35a57.869,57.869,0,0,0,1.166,11.606c.439-.228.883-.447,1.335-.648l.107-.045a25.379,25.379,0,0,1,20.237-.045c.037.015.072.027.107.045.5.216.968.449,1.439.692A57.67,57.67,0,0,0,77.06,35.069C77.06,21.033,72.1,8.46,64.28,0Zm0,32.26a4.467,4.467,0,1,1,4.467-4.467A4.467,4.467,0,0,1,64.28,32.26Z" transform="translate(32.28 91.395)" fill="url(#linear-gradient-3)"/>
    </g>
    <path id="Trazado_16" data-name="Trazado 16" d="M274.76,106.891a19.263,19.263,0,0,0,13.559,5.211,18.611,18.611,0,0,0,12.765-4.494V94.439h-1.608v12.524l-.184.151a16.609,16.609,0,0,1-10.869,3.5c-9.869,0-17.311-7.236-17.311-16.835s7.445-16.835,17.311-16.835a16.277,16.277,0,0,1,11.6,4.2l1.025-1.1c-3.114-3.015-7.484-4.606-12.676-4.606a19.357,19.357,0,0,0-13.606,5.211,18.73,18.73,0,0,0,0,26.24Z" transform="translate(-131.548 34.675)" fill="#dbdbdb"/>
    <path id="Trazado_17" data-name="Trazado 17" d="M470.9,80.671a19.943,19.943,0,0,0-26.912.025,18.719,18.719,0,0,0,0,26.195,19.94,19.94,0,0,0,26.912.027,18.733,18.733,0,0,0,0-26.247Zm-13.445,29.952c-9.75,0-17.1-7.236-17.1-16.835s7.35-16.835,17.1-16.835S474.5,84.192,474.5,93.789,467.17,110.623,457.452,110.623Z" transform="translate(-258.791 34.66)" fill="#dbdbdb"/>
    <path id="Trazado_18" data-name="Trazado 18" d="M631.09,76.5v36.141h23.091v-1.449H632.8V76.5Z" transform="translate(-403.484 33.879)" fill="#dbdbdb"/>
    <path id="Trazado_19" data-name="Trazado 19" d="M780.637,94.975V93.583H760.852V77.949h22.12V76.5H759.14v36.141h24.627v-1.449H760.852V94.975Z" transform="translate(-499.758 33.879)" fill="#dbdbdb"/>
    <path id="Trazado_20" data-name="Trazado 20" d="M922.5,100.233l.3-.042,8.884,12.45h1.856l-9.124-12.777.665-.2c5.382-1.606,8.345-5.561,8.345-11.142,0-7.526-5.407-12.023-14.462-12.023H906.14v36.141h1.715V100.494h11.1A25.994,25.994,0,0,0,922.5,100.233ZM907.857,77.949h11.1c8.189,0,12.7,3.755,12.7,10.574,0,6.72-4.628,10.576-12.7,10.576h-11.1Z" transform="translate(-610.28 33.879)" fill="#dbdbdb"/>
  </g>
</svg>
