<svg xmlns="http://www.w3.org/2000/svg" width="23.411" height="23.406" viewBox="0 0 23.411 23.406">
  <path id="Icon_awesome-instagram" data-name="Icon awesome-instagram" d="M11.7,7.94a6,6,0,1,0,6,6A5.991,5.991,0,0,0,11.7,7.94Zm0,9.9a3.9,3.9,0,1,1,3.9-3.9,3.909,3.909,0,0,1-3.9,3.9ZM19.349,7.694a1.4,1.4,0,1,1-1.4-1.4A1.4,1.4,0,0,1,19.349,7.694Zm3.975,1.421a6.927,6.927,0,0,0-1.891-4.9,6.972,6.972,0,0,0-4.9-1.891c-1.932-.11-7.725-.11-9.657,0a6.962,6.962,0,0,0-4.9,1.885A6.949,6.949,0,0,0,.077,9.11c-.11,1.932-.11,7.725,0,9.657a6.927,6.927,0,0,0,1.891,4.9,6.981,6.981,0,0,0,4.9,1.891c1.932.11,7.725.11,9.657,0a6.927,6.927,0,0,0,4.9-1.891,6.972,6.972,0,0,0,1.891-4.9c.11-1.932.11-7.719,0-9.652Zm-2.5,11.725A3.95,3.95,0,0,1,18.6,23.065c-1.541.611-5.2.47-6.9.47s-5.364.136-6.9-.47A3.95,3.95,0,0,1,2.579,20.84c-.611-1.541-.47-5.2-.47-6.9s-.136-5.364.47-6.9A3.95,3.95,0,0,1,4.8,4.816c1.541-.611,5.2-.47,6.9-.47s5.364-.136,6.9.47a3.95,3.95,0,0,1,2.225,2.225c.611,1.541.47,5.2.47,6.9S21.438,19.3,20.827,20.84Z" transform="translate(0.005 -2.238)" fill="#dbdbdb"/>
</svg>
