<svg xmlns="http://www.w3.org/2000/svg" width="22.625" height="22.625" viewBox="0 0 22.625 22.625">
  <path id="Icon_ionic-logo-facebook" data-name="Icon ionic-logo-facebook" d="M25.876,4.5H5.749A1.25,1.25,0,0,0,4.5,5.749V25.876a1.25,1.25,0,0,0,1.249,1.249H15.812V18.169h-2.7v-3.3h2.7V12.43a4.3,4.3,0,0,1,4.637-4.513c1.249,0,2.592.094,2.9.136V11.1h-2.08c-1.42,0-1.691.672-1.691,1.661v2.1h3.382l-.442,3.3h-2.94v8.956h6.292a1.25,1.25,0,0,0,1.249-1.249V5.749A1.25,1.25,0,0,0,25.876,4.5Z" transform="translate(-4.5 -4.5)" fill="#dbdbdb"/>
</svg>
