<svg xmlns="http://www.w3.org/2000/svg" width="22.625" height="22.625" viewBox="0 0 22.625 22.625">
  <path id="Icon_simple-linkedin" data-name="Icon simple-linkedin" d="M19.275,19.28h-3.35V14.03c0-1.252-.025-2.863-1.746-2.863-1.747,0-2.014,1.362-2.014,2.771V19.28H8.815V8.484h3.218V9.956h.043a3.531,3.531,0,0,1,3.177-1.744c3.395,0,4.022,2.234,4.022,5.142V19.28ZM5.031,7.007A1.946,1.946,0,1,1,6.977,5.06,1.944,1.944,0,0,1,5.031,7.007ZM6.711,19.28H3.351V8.484h3.36ZM20.951,0H1.67A1.649,1.649,0,0,0,0,1.63V20.995a1.649,1.649,0,0,0,1.67,1.63H20.949a1.655,1.655,0,0,0,1.676-1.63V1.63A1.656,1.656,0,0,0,20.949,0Z" fill="#dbdbdb"/>
</svg>
